<svg xmlns="http://www.w3.org/2000/svg" viewBox="0 0 830.6 157.2">
  <defs>
    <style>
      .path1 {
        fill: #1d1d1b;
      }
    </style>
  </defs>
  <g>
    <path fill="#eb565f" d="M265.2,65.2c.2-3.2,0-17.7,0-21.2.1-1.8-1-3.7-2.8-4.4-44.1-19.5-93.3,19.4-84.8,66.8.8,4.8,2.2,9.5,4.1,13.9.7,1.7,2.6,2.8,4.4,2.8h20.4c2.7,0,4.5-1.8,4.5-4.1v-45.8c0-1.1.6-2.6,1.8-3.4.7-.5,1.9-.8,2.5-.8h45.6c.8,0,2-.4,2.7-1,.9-.7,1.4-1.9,1.5-2.6h0v-.2Z"/>
    <path fill="#f1898e" d="M265.3,72.6c-.1,3,0,42.3,0,46.1s-1.7,4-3.6,4.2c-3.1.2-42.4,0-46.2,0s-3.8,1.4-4.1,3.1c-.5,3.5,0,17.9-.2,21.8,0,1.3.5,2.9,1.6,3.7,8.3,4.5,18.3,5.9,27.8,5.7,37.3-.9,66-37.7,57.7-74.1-.8-3.8-2-7.5-3.4-11-.5-1-1.1-2.1-2.1-2.6s-1.7-.7-2.6-.7h-20.4c-2.1-.2-4.2,1.7-4.5,3.6h0v.2Z"/>
  </g>
  <g>
    <path class="path1" d="M23.6,154.1c-5.2-23-10-46.2-15.1-69.2-2.6-12.1-5.2-24.2-7.8-36.2-.2-1.1-.5-2.2-.7-3.2,0-.3,0-1.2.4-2.3s1.4-1.9,2.5-2.3c1.3-.5,2.7-.2,4.1-.3h17.3c2.4,0,4.2,0,5.6,2,1.9,3.6,12.9,70.8,17,91.7.2.9,2.3.9,2.5,0,4.5-23.6,12.4-65.9,16.5-87.2.3-1.4,1.6-2.7,2.9-3.2.6-.2,1.2-.3,1.8-.3h30.2c1.3,0,2.1,0,3.3.5,1.1.5,2.4,2.2,2.5,3,.9,4.8,12.7,66.4,16.5,87.1,0,.9,1.8,1,2.2.5,3.8-18.5,16.1-87.8,16.7-90.6.3-1.3,1.6-2.7,2.9-3.1,1.3-.5,1.8-.3,3.5-.3h16.9c1.7,0,2.9-.2,4.1.3,2,.5,3.4,3.2,2.8,5-3.8,17.6-22.1,102.1-23.3,107.7-.2.7-.8,1.7-1.5,2.2-1.3,1.1-2.6,1.2-4.3,1.2-10.4-.2-25.4.3-36.7-.2-1.3-.4-2.8-2-3.1-3.2-1.8-9.8-12.2-65.6-15.9-85.9-.2-.8-.3-1.5-1.1-1.6-.6,0-.9.2-1.1.7-.8,3-1.7,9.3-2.3,12-.9,4.7-13.1,70-13.9,74.7-.3,1.4-1.9,3-3.4,3.4-10.3.5-22.6,0-32.4.2-3.3-.1-8.3,1-9.6-3Z"/>
    <path class="path1" d="M391.3,61.8c-.3-5.3-.9-15.6-1-18.1,0-1.2-.4-2.3-1.3-3.3-2.6-2.2-6.4-1.8-9.7-1.9-9.1,0-18.4,3.1-23.8,9.2-5.4,5.4-8.2,12.6-10.7,20.6-.3.4-.8.6-1.3.7.3-8.4.9-21.5.9-23.9,0-3.4-2.8-4.9-6.1-4.6h-15.6c-3.1,0-5.9,0-6.9,3.3-.5,3.8-.1,24.6-.2,49.5,0,16.7-.2,47.8,0,58.8v1.1c1.1,3.6,4.2,3.6,7.4,3.5h16.8c3,.3,5.9-.8,6.2-4.2v-65.1c7.5-15.3,23.5-20.2,39.8-18.1,2.4.5,5.1-.8,5.5-3.4.3-1.2,0-2.7,0-4.1Z"/>
    <path class="path1" d="M486.2,156.8c-2,0-3.3-.2-4.8-1.3h0c-10-12.4-32.6-44.6-37.3-49.1-1.7-1-4-.9-6.2-.9v47.1h0c0,.3,0,.8-.5,1.7,0,.1-.2.3-.3.4-1,1.5-2.6,2.1-4.1,2h-20.5c-2.1.2-4.3-1.7-4.7-3.4v-.9c-.3-15.3-.2-59.1-.2-82.2V4.2c0-1.9,2.4-4.4,4.8-4.2h20.3c1.7,0,3.5.6,4.5,2.2.3.4.7,1.8.7,1.9v81.6h2.9c1.6,0,3.8-.6,4.7-1.8,3.8-4.2,26.4-33.2,34.9-42.5,1-.6,2.1-1,3.2-1h23c1.4,0,2.5.3,3.7,1.4,1.5,1.4,1.3,4.1.2,5.4-8.8,10.4-31.6,38.6-39.3,47.5,12.4,16.6,39.3,51.8,42.1,56.2,1.4,3.9-1.8,5.9-5.6,5.9h-21.5Z"/>
    <path class="path1" d="M578.6,34.6c-34.6-2.4-58.4,15.6-58.4,51.9v13.7c0,3.2,0,6.4.2,9.6s.6,5.8,1.2,8.7,1.3,5.3,2.3,7.8,2,4.7,3.2,6.9,2.6,4.1,4.1,6,3.2,3.5,5,5.1,3.8,3,5.9,4.2,4.4,2.4,6.7,3.3,4.9,1.8,7.4,2.5,5.4,1.2,8.1,1.6,5.9.7,8.8.8c4.4.2,8.8.1,13.2,0,6-.2,11.9-.9,17.7-2.4,2.6-.7,5.2-1.4,7.8-2.3s4.9-1.7,7.1-2.9c.7-.4,1.5-.9,2-1.6,1.1-1.3,1.1-2.3,1.3-4.1.3-2.6.8-7.3,1.1-10.2.9-4.5-1-8.1-5.7-6.7-10.6,3.8-21.4,6.1-32.8,6.1-15.9.3-34.2-4.2-35-23,0-1,0-2.1,0-3.2,10.5,0,23.7,0,31.8,0h16.7c3.6,0,19.1,0,22.2,0s4.7-1.8,4.9-4.4c.6-3.9.9-8.3.9-12,1.6-32.1-14.5-53.7-47.6-55.3ZM549.5,86.3c0-7.8.9-16.1,5.7-21.4,6.1-8,22.4-9,31.7-4.1,9.4,5.1,10.6,15.4,10.7,25.4-15.2,0-35.1,0-48.1,0Z"/>
    <path class="path1" d="M723.5,61.8c-.3-5.3-.9-15.6-1-18.1,0-1.2-.4-2.3-1.3-3.3-2.6-2.2-6.4-1.8-9.7-1.9-9.1,0-18.4,3.1-23.8,9.2-5.4,5.4-8.2,12.6-10.7,20.6-.3.4-.8.6-1.3.7.3-8.4.9-21.5.9-23.9,0-3.4-2.8-4.9-6.1-4.6h-15.6c-3.1,0-5.9,0-6.9,3.3-.5,3.8-.1,24.6-.2,49.5,0,16.7-.2,48.1,0,59.1v.8c1.1,3.6,4.2,3.6,7.4,3.5h16.8c3,0,5.9-.8,6.2-4.2v-65.1c7.5-15.3,23.5-20.2,39.8-18.1,2.4.5,5.1-.8,5.5-3.4.3-1.2,0-2.7,0-4.1Z"/>
    <path class="path1" d="M781.2,156.8c-9.9,0-17.9-.9-26.2-3-4.9-1.3-9.5-2.6-13.4-4.1-1.1-.4-2.3-1-3-2-.7-.9-1-1.8-1.1-2.9-.2-2.3-1-10-1.4-13.8-.4-2.5-.4-4.5,1.6-6,1.3-.9,3-.7,4.5-.2,4.2,1.6,8.8,3.1,13.4,4.4,9.9,2.8,37,6.3,43.3-3.2,2.5-3.7,2.1-10-1.1-13-5.9-4.8-13.5-5.9-20.7-7.9-9.4-2.1-18.9-5-24.8-8-6.2-3-12.2-8.1-14.6-13.9-2.4-5.1-3.1-11.8-2.7-17.6,1.5-24.5,22.6-30.8,46.1-31,9.5,0,18.5.9,26.8,3.3,4.7,1.3,8.8,2.7,12.3,4.4.8.4,1.6.9,2.1,1.7.7.9.9,1.7,1,2.8.3,2.4,1.2,10.3,1.5,13.1.6,2.7-1.3,5.8-4.3,5.4-2.3-.3-4.4-1.4-6.6-2-9.1-2.9-17.7-4.5-27.7-4.6-8.8-.2-24.4.7-21.2,13.5,1.4,5.8,8.2,7.8,13.3,9.5,5.3,1.7,10.9,2.9,16.4,4.2,6.8,1.6,12.5,3.4,17.2,5.4,5.8,2.4,12,6.6,15.1,12.3,4.8,8.8,4.6,23.5.6,32.8-7.9,17.5-28.6,20.3-46.1,20.4h-.3Z"/>
  </g>
  <path class="path1" d="M486.1,156.9"/>
</svg>